<svg id="Layer_1" data-name="Layer 1" xmlns="http://www.w3.org/2000/svg" viewBox="0 0 1074.84615 194.35526"><defs><style>.cls-1{fill:#3498db;}.cls-2{fill:#fff;}.cls-3{fill:#f16722;}.cls-4{fill:#f39c12;}.cls-5{fill:#545b5b;}.cls-6{fill:#4c638c;}</style></defs><title>partner-icons</title><rect class="cls-1" x="440.53858" width="194.35526" height="194.35526"/><path class="cls-2" d="M578.85643,59.25469c0-4.76609-15.65112-11.41331-41.14022-11.41331S496.576,54.4886,496.576,59.25469c0,4.765,15.65112,11.41226,41.14022,11.41226S578.85643,64.01973,578.85643,59.25469Z"/><path class="cls-2" d="M496.576,83.6278c0,4.76609,15.65112,11.41331,41.14022,11.41331s41.14022-6.64722,41.14022-11.41331V68.41032c-7.76915,5.71311-24.82835,8.73687-41.14022,8.73687s-33.37107-3.02388-41.14022-8.737Z"/><path class="cls-2" d="M496.576,108.24476c0,4.765,15.65112,11.41226,41.14022,11.41226s41.14022-6.64722,41.14022-11.41226V92.93343c-7.76915,5.71311-24.82835,8.73687-41.14022,8.73687s-33.37107-3.02388-41.14022-8.737Z"/><path class="cls-2" d="M496.576,133.86581a2.09925,2.09925,0,0,1-.12469.61738,2.09925,2.09925,0,0,1,.12469.61738c0,4.76609,15.65112,11.41331,41.14022,11.41331s41.14022-6.64722,41.14022-11.41331V117.494c-7.76915,5.7139-24.82835,8.73766-41.14022,8.73766s-33.37107-3.02388-41.14022-8.73779Z"/><rect class="cls-3" width="194.35526" height="194.35526"/><path class="cls-2" d="M60.83551,75.13454l-7.44917-7.44917a1.30949,1.30949,0,0,0-1.93541.0868A58.25559,58.25559,0,0,0,38.63265,98.71692,1.313,1.313,0,0,0,39.941,100.15H50.47a1.29834,1.29834,0,0,0,1.28384-1.14925,45.23668,45.23668,0,0,1,9.17871-22.14608A1.29794,1.29794,0,0,0,60.83551,75.13454Z"/><path class="cls-2" d="M96.86234,59.24528a45.26221,45.26221,0,0,1,27.85694,9.53634,1.29733,1.29733,0,0,0,1.71949-.097l7.44953-7.44973a1.30928,1.30928,0,0,0-.08674-1.93508,58.49023,58.49023,0,0,0-73.878-.00041,1.30928,1.30928,0,0,0-.08674,1.9351l7.44967,7.44967a1.29733,1.29733,0,0,0,1.71946.097A45.26215,45.26215,0,0,1,96.86234,59.24528Z"/><path class="cls-2" d="M142.32825,104.71119a45.26221,45.26221,0,0,1-9.53613,27.85664,1.29733,1.29733,0,0,0,.097,1.71946l7.44968,7.44974a1.30928,1.30928,0,0,0,1.9351-.08673,58.49044,58.49044,0,0,0-.00039-73.87871,1.30928,1.30928,0,0,0-1.9351-.08671l-7.44961,7.4498a1.29733,1.29733,0,0,0-.09694,1.71947A45.26207,45.26207,0,0,1,142.32825,104.71119Z"/><path class="cls-2" d="M50.47,109.27269H39.941a1.313,1.313,0,0,0-1.30839,1.4331,58.25536,58.25536,0,0,0,12.8182,30.94427,1.30949,1.30949,0,0,0,1.93541.08681l7.44923-7.4491a1.29794,1.29794,0,0,0,.097-1.72015,45.23628,45.23628,0,0,1-9.17861-22.14569A1.29834,1.29834,0,0,0,50.47,109.27269Z"/><path class="cls-2" d="M112.02317,109.09006l17.31958-3.08426a1.30324,1.30324,0,0,0,.00145-2.55917l-17.31754-3.10271a1.30324,1.30324,0,0,0-1.55113,1.279l-.002,6.187A1.30324,1.30324,0,0,0,112.02317,109.09006Z"/><path class="cls-2" d="M96.98677,114.27217a9.55934,9.55934,0,1,1,8.33222-14.215h0a9.56362,9.56362,0,0,1-8.33222,14.215Zm-.02214-15.21037a5.64883,5.64883,0,1,0,4.94007,2.89972h0a5.60986,5.60986,0,0,0-3.389-2.68251A5.67238,5.67238,0,0,0,96.96463,99.06181Z"/><rect class="cls-4" x="220.26929" width="194.35526" height="194.35526"/><path class="cls-2" d="M329.46443,72.02374a2.62822,2.62822,0,0,1-1.86426-.77185L317.44692,61.09863,307.29367,71.25188a2.63646,2.63646,0,0,1-3.72852-3.72852l12.01751-12.01751a2.6373,2.6373,0,0,1,3.72852,0l12.01751,12.01751a2.63611,2.63611,0,0,1-1.86426,4.50037Z"/><path class="cls-2" d="M317.44692,89.6298a2.63572,2.63572,0,0,1-2.63611-2.63611v-28.296a2.63611,2.63611,0,0,1,5.27222,0v28.296A2.63572,2.63572,0,0,1,317.44692,89.6298Z"/><path class="cls-2" d="M317.44692,138.29348a2.63572,2.63572,0,0,1-2.63611-2.63611v-28.296a2.63611,2.63611,0,0,1,5.27222,0v28.296A2.63572,2.63572,0,0,1,317.44692,138.29348Z"/><path class="cls-2" d="M317.44692,139.621a2.62822,2.62822,0,0,1-1.86426-.77185l-12.01751-12.01751a2.63646,2.63646,0,0,1,3.72852-3.72852l10.15325,10.15325,10.15325-10.15325a2.63646,2.63646,0,0,1,3.72852,3.72852l-12.01751,12.01751A2.62822,2.62822,0,0,1,317.44692,139.621Z"/><path class="cls-2" d="M355.92677,99.81363H327.62758a2.63611,2.63611,0,1,1,0-5.27222h28.29919a2.63611,2.63611,0,1,1,0,5.27222Z"/><path class="cls-2" d="M345.23365,111.83113a2.63611,2.63611,0,0,1-1.86426-4.50037l10.1543-10.15325-10.1543-10.15325a2.63646,2.63646,0,0,1,3.72852-3.72852l12.01856,12.01751a2.6373,2.6373,0,0,1,0,3.72852l-12.01856,12.01751A2.62822,2.62822,0,0,1,345.23365,111.83113Z"/><path class="cls-2" d="M307.261,99.81363H278.96707a2.63611,2.63611,0,1,1,0-5.27222H307.261a2.63611,2.63611,0,1,1,0,5.27222Z"/><path class="cls-2" d="M289.65492,111.83113a2.62822,2.62822,0,0,1-1.86426-.77185L275.7721,99.04177a2.6373,2.6373,0,0,1,0-3.72852l12.01856-12.01751a2.63646,2.63646,0,0,1,3.72852,3.72852l-10.1543,10.15325,10.1543,10.15325a2.63611,2.63611,0,0,1-1.86426,4.50037Z"/><path class="cls-2" d="M317.44692,157.62989a60.45185,60.45185,0,1,1,60.45237-60.45237A60.52005,60.52005,0,0,1,317.44692,157.62989Zm0-115.63147a55.17962,55.17962,0,1,0,55.18015,55.17909A55.2423,55.2423,0,0,0,317.44692,41.99842Z"/><rect class="cls-5" x="880.4909" width="194.35526" height="194.35526"/><circle class="cls-2" cx="940.92956" cy="133.91654" r="11.15675"/><circle class="cls-2" cx="977.66849" cy="149.1343" r="11.15675"/><circle class="cls-2" cx="1014.40742" cy="134.91735" r="11.15675"/><circle class="cls-2" cx="1029.62517" cy="98.17842" r="11.15675"/><circle class="cls-2" cx="1014.40742" cy="61.43949" r="11.15675"/><circle class="cls-2" cx="977.66849" cy="45.22093" r="11.15675"/><circle class="cls-2" cx="940.92956" cy="60.43869" r="11.15675"/><circle class="cls-2" cx="925.71181" cy="97.17762" r="11.15675"/><rect class="cls-6" x="660.51474" width="194.35526" height="194.35526"/><circle class="cls-2" cx="706.39889" cy="131.43705" r="11.15675"/><circle class="cls-2" cx="743.21852" cy="84.24696" r="11.15675"/><circle class="cls-2" cx="773.98985" cy="109.84044" r="11.15675"/><circle class="cls-2" cx="808.98581" cy="62.91818" r="11.15675"/><rect class="cls-2" x="757.19543" y="84.96167" width="4.72661" height="21.93815" transform="translate(207.53398 626.40303) rotate(-51.05762)"/><rect class="cls-2" x="704.57513" y="105.88861" width="41.66132" height="4.7277" transform="translate(191.83611 611.47762) rotate(-51.81119)"/><rect class="cls-2" x="770.11942" y="84.08797" width="41.66132" height="4.7277" transform="translate(233.99215 654.67167) rotate(-51.81119)"/></svg>