<svg id="Layer_1" data-name="Layer 1" xmlns="http://www.w3.org/2000/svg" viewBox="0 0 399 134"><defs><style>.cls-1{fill:#fff;}</style></defs><title>riverbed_logo</title><path class="cls-1" d="M8.36909,42.53271h15.6397v8.2715c6.4433-5.6646,11.6426-9.19821,20.70021-9.19821V58.16851a12.52353,12.52353,0,0,0-4.75341-.9224c-6.5972,0-15.9468,4.1396-15.9468,16.8662v46.1533H8.36909Z"/><path class="cls-1" d="M50.98679,18.92191a7.823,7.823,0,1,1,7.8218,7.8159A7.84775,7.84775,0,0,1,50.98679,18.92191Z"/><path class="cls-1" d="M50.98679,42.53271h15.646v77.7329h-15.646Z"/><path class="cls-1" d="M106.95069,120.26561H93.14789l-20.2333-77.7329h16.5581l10.4204,49.6655h.3095l10.4278-49.6655h16.562Z"/><path class="cls-1" d="M144.35839,87.30271V97.877c0,4.91111,2.9121,7.66991,7.666,7.66991,5.9834,0,7.3633-4.4483,7.6709-7.8291h15.6358a23.85648,23.85648,0,0,1-6.2862,16.5654,22.81845,22.81845,0,0,1-17.0205,6.9043c-9.5029,0-16.7095-4.4521-20.3872-11.1953-2.1475-3.9883-2.9145-9.5029-2.9145-15.7891V68.59131c0-6.2876.767-11.8057,2.9145-15.7964,3.6777-6.7456,10.8843-11.18891,20.3872-11.18891,14.417,0,23.3067,10.57271,23.3067,24.23291v21.4638Zm0-12.2656h15.3369v-8.8979c0-5.8277-2.916-8.8931-7.6709-8.8931-4.7539,0-7.666,3.0654-7.666,8.8931Z"/><path class="cls-1" d="M181.71479,42.53271h15.6456v8.2715c6.4365-5.6646,11.6513-9.19821,20.6953-9.19821V58.16851a12.47859,12.47859,0,0,0-4.751-.9224c-6.5889,0-15.9443,4.1396-15.9443,16.8662v46.1533h-15.6456Z"/><path class="cls-1" d="M224.34079,11.09771h15.6406v38.4834h.30961A16.75267,16.75267,0,0,1,254.69339,41.606c7.5117,0,11.3545,2.91651,13.9589,7.05371,1.9864,3.2202,2.4502,7.667,2.4502,18.8632v29.5923c0,8.584-.7666,13.34179-2.6103,16.7061-2.7529,5.0586-7.3535,7.3662-13.6397,7.3662-7.8242,0-10.8896-3.5303-14.8711-7.97951v7.05761h-15.6406Zm31.1201,55.3481c0-4.9004-1.6845-9.1997-7.663-9.1997-4.4483,0-7.8165,3.521-7.8165,8.4287v30.2139c0,5.6718,3.0665,9.6582,7.8165,9.6582,5.371,0,7.663-4.291,7.663-10.5821Z"/><path class="cls-1" d="M293.07419,87.30271V97.877c0,4.91111,2.9102,7.66991,7.6621,7.66991,5.9844,0,7.3653-4.4483,7.6709-7.8291h15.6397a23.83081,23.83081,0,0,1-6.2871,16.5654,22.80659,22.80659,0,0,1-17.0235,6.9043c-9.5078,0-16.707-4.4521-20.3838-11.1953-2.1464-3.9883-2.914-9.5029-2.914-15.7891V68.59131c0-6.2876.7676-11.8057,2.914-15.7964,3.6768-6.7456,10.876-11.18891,20.3838-11.18891,14.4151,0,23.3106,10.57271,23.3106,24.23291v21.4638Zm0-12.2656h15.333v-8.8979c0-5.8277-2.9121-8.8931-7.6709-8.8931-4.7519,0-7.6621,3.0654-7.6621,8.8931Z"/><path class="cls-1" d="M361.53518,113.208c-3.9844,4.44921-7.0547,7.97951-14.8838,7.97951-6.2803,0-10.877-2.3076-13.6319-7.3662-1.8466-3.36431-2.6123-8.1221-2.6123-16.7061V67.52291c0-11.1962.4629-15.643,2.459-18.8632,2.6016-4.1372,6.4326-7.05371,13.9541-7.05371,6.1192,0,11.0235,2.91651,14.4004,7.97511h.3145V11.09771H377.167v109.1679H361.53518Zm-15.4864-18.24319c0,6.2911,2.294,10.5821,7.65822,10.5821,4.76568,0,7.82818-3.9864,7.82818-9.6582V65.67481c0-4.9077-3.3809-8.4287-7.82818-8.4287-5.96872,0-7.65822,4.2993-7.65822,9.1997Z"/><path class="cls-1" d="M384.74708,10.91111a4.58595,4.58595,0,1,1-4.58208,4.5855A4.58589,4.58589,0,0,1,384.74708,10.91111Zm0,.8355a3.74973,3.74973,0,1,0,3.6758,3.75A3.71857,3.71857,0,0,0,384.74708,11.74661Zm-1.7325,1.0757H385.041c1.22848,0,1.83688.4936,1.83688,1.5092a1.3872,1.3872,0,0,1-1.3691,1.4927l1.53422,2.3443h-1.01372l-1.53128-2.3179h-.64842v2.3179h-.835Zm.835,2.269h.9492c.82722,0,1.24322-.229,1.24322-.79931,0-.49559-.40332-.70849-.97462-.70849h-1.2178Z"/></svg>