<?xml version="1.0" encoding="utf-8"?>
<!-- Generator: Adobe Illustrator 18.1.1, SVG Export Plug-In . SVG Version: 6.00 Build 0)  -->
<svg version="1.1" id="Layer_1" xmlns:sketch="http://www.bohemiancoding.com/sketch/ns"
	 xmlns="http://www.w3.org/2000/svg" xmlns:xlink="http://www.w3.org/1999/xlink" x="0px" y="0px" viewBox="0 0 562.8 166.8"
	 enable-background="new 0 0 562.8 166.8" xml:space="preserve">
<g id="Venture-User-Interface" sketch:type="MSPage">
	<g id="Venture-Logo" sketch:type="MSArtboardGroup">
		<g id="Nav-Logo-Normal" sketch:type="MSLayerGroup">
			<path id="Fill-1" sketch:type="MSShapeGroup" fill="#FFFFFF" d="M181.2,52.1l19,48.8l18.9-48.8h7.7l-23.4,58.1h-6.3l-23.5-58.1
				H181.2"/>
			<path id="Fill-2" sketch:type="MSShapeGroup" fill="#FFFFFF" d="M273.4,103.6v6.5h-39V52.1h38.2v6.5h-31v18.8h26.9v6.1h-26.9v20
				H273.4"/>
			<path id="Fill-3" sketch:type="MSShapeGroup" fill="#FFFFFF" d="M291,65.8v44.3h-7.3V52.1h5.7l35.6,45.2V52.2h7.3v58h-6.1
				L291,65.8"/>
			<path id="Fill-4" sketch:type="MSShapeGroup" fill="#FFFFFF" d="M387.4,58.6h-19.8v51.5h-7.3V58.6h-19.8v-6.5h46.9V58.6"/>
			<path id="Fill-5" sketch:type="MSShapeGroup" fill="#FFFFFF" d="M419.3,103.7c3.3,0,6.1-0.7,8.3-2c2.2-1.3,4-3,5.3-5.1
				c1.3-2.1,2.2-4.5,2.8-7.2c0.5-2.7,0.8-5.4,0.8-8.2V51.9h7.3v29.4c0,3.9-0.4,7.6-1.3,11.2c-0.9,3.5-2.3,6.6-4.2,9.3
				c-1.9,2.7-4.5,4.8-7.6,6.3c-3.1,1.6-6.9,2.3-11.3,2.3c-4.6,0-8.4-0.8-11.6-2.5c-3.1-1.6-5.6-3.8-7.6-6.5
				c-1.9-2.7-3.3-5.8-4.1-9.3c-0.8-3.5-1.3-7.1-1.3-10.8V51.9h7.3v29.4c0,2.9,0.3,5.7,0.8,8.4c0.6,2.7,1.5,5.1,2.8,7.2
				c1.3,2.1,3.1,3.7,5.3,5C413.3,103.1,416,103.7,419.3,103.7"/>
			<path id="Fill-6" sketch:type="MSShapeGroup" fill="#FFFFFF" d="M456.6,110.2V52.1h24.6c2.5,0,4.9,0.5,7,1.6
				c2.1,1.1,4,2.5,5.5,4.3c1.5,1.8,2.7,3.8,3.6,6c0.9,2.2,1.3,4.5,1.3,6.7c0,2-0.3,4-0.8,5.8c-0.6,1.9-1.4,3.6-2.4,5.1
				c-1.1,1.5-2.3,2.8-3.8,3.9c-1.5,1.1-3.1,1.9-5,2.4l13.9,22.3h-8.2l-13.1-20.9h-15.2v20.9H456.6L456.6,110.2z M463.9,82.8h17.4
				c1.5,0,2.9-0.3,4.1-1c1.2-0.7,2.2-1.5,3.1-2.7c0.9-1.1,1.5-2.4,2-3.9c0.5-1.5,0.7-3,0.7-4.6c0-1.6-0.3-3.2-0.8-4.6
				c-0.6-1.4-1.3-2.7-2.3-3.8c-0.9-1.1-2-2-3.3-2.6c-1.3-0.6-2.6-0.9-4-0.9h-16.9V82.8L463.9,82.8z"/>
			<path id="Fill-7" sketch:type="MSShapeGroup" fill="#FFFFFF" d="M549.3,103.6v6.5h-39V52.1h38.2v6.5h-31v18.8h26.9v6.1h-26.9v20
				H549.3"/>
			<path id="Fill-8" sketch:type="MSShapeGroup" fill="#FFFFFF" d="M28.5,81.1l39.8-27.7v55.4l9.3,23.3V30.1L28.5,81.1"/>
			<path id="Fill-9" sketch:type="MSShapeGroup" fill="#FFFFFF" d="M85.1,30.1v101.9l9.3-23.3V53.4l39.8,27.7L85.1,30.1"/>
			<path id="Fill-10" sketch:type="MSShapeGroup" fill="#FFFFFF" d="M81.3,6.1l-74.1,75l74.1,75l74.1-75L81.3,6.1L81.3,6.1z
				 M14.5,81.1l66.8-67.6l66.8,67.6l-66.8,67.6L14.5,81.1L14.5,81.1z"/>
		</g>
	</g>
</g>
</svg>
