<?xml version="1.0" encoding="utf-8"?>
<!-- Generator: Adobe Illustrator 19.1.0, SVG Export Plug-In . SVG Version: 6.00 Build 0)  -->
<svg version="1.1" id="Layer_1" xmlns="http://www.w3.org/2000/svg" xmlns:xlink="http://www.w3.org/1999/xlink" x="0px" y="0px"
	 viewBox="-704 484 511 114" style="enable-background:new -704 484 511 114;" xml:space="preserve">
<style type="text/css">
	.st0{fill:#FFAD59;}
	.st1{fill:#686868;}
</style>
<g>
	<g>
		<path class="st0" d="M-699.9370117,587.1953125v9.7880859h-2.9404297V567.578125h13.1484375
			c13.1484375,0,13.1484375,19.6171875,0,19.6171875H-699.9370117z M-699.9370117,584.4228516h10.2080078
			c9.199707,0,9.199707-14.0722656,0-14.0722656h-10.2080078V584.4228516z"/>
		<path class="st0" d="M-645.081543,596.9833984h-3.8227539l-9.7456055-10.8378906h-7.6035156v10.8378906h-2.9404297V567.578125
			h13.1904297c6.5112305,0,9.7456055,4.3691406,9.7456055,9.3261719c0,4.578125-2.6044922,8.6953125-8.8637695,9.03125
			L-645.081543,596.9833984z M-666.253418,570.3505859v13.0224609h10.0820312c4.7045898,0,6.9731445-2.7724609,6.9731445-6.46875
			c0-3.6972656-2.2685547-6.5537109-6.8051758-6.5537109H-666.253418z"/>
		<path class="st0" d="M-606.3994141,582.3652344c0,7.6865234-4.9570312,15.2480469-14.8706055,15.1220703
			c-9.9980469,0.1259766-14.9125977-7.4775391-14.9125977-15.1640625c0-8.234375,5.3769531-15.3330078,14.9125977-15.2070312
			C-611.3144531,566.9902344-606.3994141,574.59375-606.3994141,582.3652344z M-621.2700195,594.7148438
			c7.9814453,0.1259766,11.9301758-6.0488281,11.9301758-12.3496094c0-6.5117188-3.9067383-12.6025391-11.9301758-12.4765625
			c-7.8974609-0.1259766-12.0981445,5.6289062-11.972168,12.4765625
			C-633.1162109,588.75-629.3354492,594.8408203-621.2700195,594.7148438z"/>
		<path class="st0" d="M-584.6049805,567.578125c9.9555664,0,14.7446289,7.1835938,14.7446289,14.4082031
			c0,7.4355469-4.453125,14.9970703-14.7446289,14.9970703h-10.3759766V567.578125H-584.6049805z M-592.0405273,594.2529297
			h7.4355469c8.2333984,0,11.8881836-6.3847656,11.7617188-12.3085938c-0.1259766-5.7128906-3.8642578-11.59375-11.7617188-11.59375
			h-7.4355469V594.2529297z"/>
		<path class="st0" d="M-535.3793945,567.578125v18.0634766c0,7.9394531-5.2509766,11.7617188-11.59375,11.7617188
			c-6.3852539,0-11.762207-3.8222656-11.762207-11.7617188V567.578125h2.9404297v18.0634766
			c0,5.5869141,3.8227539,9.03125,8.8217773,9.03125c4.4526367,0,8.6533203-2.8564453,8.6533203-9.03125V567.578125H-535.3793945z"
			/>
		<path class="st0" d="M-498.2514648,592.9931641c-3.0244141,3.0244141-6.7211914,4.4521484-10.7119141,4.4521484
			c-10.1660156,0-15.2905273-6.8046875-15.2905273-14.9960938c0-8.0234375,5.0405273-15.2910156,15.2905273-15.2910156
			c3.9067383,0,7.8554688,1.3857422,10.4179688,4.4111328l-1.8066406,1.8056641
			c-2.394043-2.3525391-5.4189453-3.5283203-8.6113281-3.5283203c-8.1914062,0-12.3500977,6.0488281-12.3500977,12.5605469
			c0,6.8886719,4.1586914,12.3076172,12.3500977,12.3076172c3.1923828,0,6.4692383-1.2597656,8.8217773-3.6123047
			L-498.2514648,592.9931641z"/>
		<path class="st0" d="M-480.4887695,570.3505859h-10.3759766v-2.7724609h23.6923828v2.7724609h-10.3759766v26.6328125h-2.9404297
			V570.3505859z"/>
		<path class="st0" d="M-432.0205078,567.578125c9.9560547,0,14.7451172,7.1835938,14.7451172,14.4082031
			c0,7.4355469-4.453125,14.9970703-14.7451172,14.9970703h-10.375V567.578125H-432.0205078z M-439.4550781,594.2529297h7.4345703
			c8.2333984,0,11.8886719-6.3847656,11.7626953-12.3085938c-0.1259766-5.7128906-3.8652344-11.59375-11.7626953-11.59375
			h-7.4345703V594.2529297z"/>
		<path class="st0" d="M-384.7275391,596.9833984h-21.0869141V567.578125h20.7089844v2.7724609h-17.7685547v10.5439453h16.9707031
			V583.625h-16.9707031v10.5859375h18.1464844V596.9833984z"/>
		<path class="st0" d="M-355.2011719,573.6269531c-1.6376953-2.7304688-5.3769531-3.7382812-8.4433594-3.7382812
			c-3.6123047,0-8.2753906,1.0498047-8.2753906,5.3769531c0,3.4863281,3.8232422,4.3691406,8.359375,5.1669922
			c5.8388672,1.0078125,11.6787109,2.3105469,11.6787109,8.5693359c0,6.6376953-6.4277344,8.4433594-11.7626953,8.4433594
			c-4.9150391,0-10.0400391-1.8056641-12.265625-6.5107422l2.5625-1.3867188
			c2.015625,3.8232422,6.1328125,5.0830078,9.703125,5.0830078c3.6132812,0,8.7792969-0.9658203,8.7792969-5.6708984
			c0-3.9902344-4.4101562-4.9990234-8.9892578-5.796875c-5.5449219-1.0087891-11.0058594-2.1425781-11.0058594-7.8974609
			c-0.1259766-6.2167969,6.2587891-8.1494141,11.1738281-8.1494141c3.9912109,0,8.4013672,1.0917969,10.9638672,5.125
			L-355.2011719,573.6269531z"/>
		<path class="st0" d="M-340.6728516,596.9833984V567.578125h2.9404297v29.4052734H-340.6728516z"/>
		<path class="st0" d="M-301.9873047,573.375c-2.3945312-2.3945312-5.8388672-3.5283203-9.03125-3.5283203
			c-8.0664062,0-12.3085938,5.9648438-12.3085938,12.5605469c0,6.4267578,4.0742188,12.1396484,12.3085938,12.1396484
			c2.9824219,0,5.9648438-1.0078125,8.4433594-3.1923828v-7.4355469h-9.6201172v-2.7304688h12.4345703v11.3837891
			c-3.0244141,3.1513672-6.6796875,4.8310547-11.2578125,4.8310547c-10.25,0-15.2490234-7.0146484-15.2490234-14.9541016
			c0-8.9482422,5.9648438-15.4589844,15.2490234-15.3330078c3.90625-0.0419922,7.7705078,1.3857422,10.7958984,4.3691406
			L-301.9873047,573.375z"/>
		<path class="st0" d="M-267.0019531,591.4384766l-0.1679688-9.7460938V567.578125h2.9404297v29.4052734h-1.7636719
			l-19.0292969-23.6503906l0.0839844,8.6953125v14.9550781h-2.9404297V567.578125h1.8476562L-267.0019531,591.4384766z"/>
		<path class="st0" d="M-229.8330078,596.9833984h-21.0869141V567.578125h20.7089844v2.7724609h-17.7685547v10.5439453h16.9707031
			V583.625h-16.9707031v10.5859375h18.1464844V596.9833984z"/>
		<path class="st0" d="M-194.1318359,596.9833984h-3.8222656l-9.7460938-10.8378906h-7.6025391v10.8378906h-2.9404297V567.578125
			h13.1894531c6.5117188,0,9.7460938,4.3691406,9.7460938,9.3261719c0,4.578125-2.6044922,8.6953125-8.8632812,9.03125
			L-194.1318359,596.9833984z M-215.3027344,570.3505859v13.0224609h10.0810547c4.7050781,0,6.9736328-2.7724609,6.9736328-6.46875
			c0-3.6972656-2.2685547-6.5537109-6.8056641-6.5537109H-215.3027344z"/>
	</g>
</g>
<path class="st1" d="M-662.6849976,487.0205383l-22.2290039,23.9440002l24.0859985,25.2349854v0.5710449h-11.6480103
	l-20.9429932-22.1570435v22.1570435h-9.434021v-50.0360107h9.434021v21.1569824l19.0120239-21.1569824h11.7249756v0.2860107
	h-0.0029907V487.0205383z"/>
<path class="st1" d="M-618.7039795,536.7685547H-656.15802c0-16.6560059,0-33.3829956,0-50.03302h37.4540405v9.1480103h-28.0900269
	v11.5069885h27.0900269v8.7929993h-27.0900269v11.2910156h28.0900269V536.7685547z"/>
<path class="st1" d="M-583.4420166,536.9845581h-9.7910156l-20.7969971-50.2490234h10.5780029l15.0790405,38.9539795
	l15.1560059-38.9539795h10.5780029L-583.4420166,536.9845581z"/>
<path class="st1" d="M-556.7520142,536.7685547v-50.03302h9.3650513v50.03302H-556.7520142L-556.7520142,536.7685547z"/>
<path class="st1" d="M-505.6390076,486.6655273h9.4360046v50.1030273h-5.8640137v0.0689697l-26.3029785-33.8070068v33.7380371
	h-9.434021v-50.03302h7.6459961l24.5150146,31.0189819v-31.0889893H-505.6390076L-505.6390076,486.6655273z"/>
<path class="st1" d="M-428.9830017,530.4775391c-5.1440125,5.0750122-11.7969971,7.4379883-19.0119934,7.4379883
	c-18.5820007,0-26.4470215-12.7980347-26.5189819-25.8060303c-0.0700073-13.0830078,8.4359741-26.375,26.5189819-26.375
	c6.7900085,0,13.2200012,2.5720215,18.3630066,7.6459961l-6.2860107,6.0750122
	c-3.2900085-3.21698-7.7229919-4.7189941-12.0799866-4.7189941c-12.0800171,0-17.2960205,9.0090027-17.2269897,17.3729858
	c0.071991,8.2940063,4.8639832,16.94104,17.2269897,16.94104c4.3569946,0,9.2919922-1.7880249,12.5740051-5.0750122
	L-428.9830017,530.4775391z"/>
<path class="st1" d="M-389.5769958,536.838562v-20.2300415h-24.5899963v20.2300415h-9.4339905v-50.03302h9.4339905v21.0839844
	h24.5899963V486.805542h9.3649902v50.03302H-389.5769958L-389.5769958,536.838562z"/>
<path class="st1" d="M-370.3800049,536.7685547v-50.03302h9.3649902v50.03302H-370.3800049L-370.3800049,536.7685547z"/>
<path class="st1" d="M-320.7090149,498.8105469c-1.7099915-2.8580322-6.4299927-5.5760193-11.8609924-5.5760193
	c-7.0090027,0-10.3649902,2.9339905-10.3649902,6.6529846c0,4.3590088,5.1440125,5.5760193,11.1520081,6.2860107
	c10.4339905,1.2860107,20.1539917,4.0039978,20.1539917,15.9400024c0,11.1519775-9.8649902,15.9400024-21.0149841,15.9400024
	c-10.2210083,0-18.0830078-3.1430054-21.7940063-12.2910156l7.8569946-4.0740356
	c2.2170105,5.4990234,8.0090027,7.9310303,14.0839844,7.9310303c5.9309998,0,11.5069885-2.072998,11.5069885-7.506958
	c0-4.7140503-4.9299927-6.6459961-11.5759888-7.3630371c-10.2260132-1.21698-19.6589966-3.927002-19.6589966-15.1480103
	c0-10.2949829,10.151001-14.5149841,19.368988-14.5849915c7.7919922,0,15.8710022,2.2170105,19.6589966,9.9349976
	L-320.7090149,498.8105469z"/>
<path class="st1" d="M-268.7829895,527.3345337h-26.1610107l-4.2900085,9.434021h-10.2210083l22.4419861-50.03302h10.2900085
	l22.446991,50.03302h-10.2950134L-268.7829895,527.3345337z M-281.8670044,497.2395325l-9.2900085,21.3000183h18.5820007
	L-281.8670044,497.2395325z"/>
<path class="st1" d="M-210.5799866,487.0205383l-22.2309875,23.9440002l24.0880127,25.2349854v0.5710449h-11.6499939
	l-20.9400024-22.1570435v22.1570435h-9.4339905v-50.0360107h9.4339905v21.1569824l19.0140076-21.1569824h11.7200012
	L-210.5799866,487.0205383L-210.5799866,487.0205383z"/>
<path class="st1" d="M-203.8349915,536.7685547v-50.03302h9.3649902v50.03302H-203.8349915L-203.8349915,536.7685547z"/>
</svg>
