<?xml version="1.0" encoding="utf-8"?>
<!-- Generator: Adobe Illustrator 18.1.1, SVG Export Plug-In . SVG Version: 6.00 Build 0)  -->
<svg version="1.1" id="Layer_1" xmlns="http://www.w3.org/2000/svg" xmlns:xlink="http://www.w3.org/1999/xlink" x="0px" y="0px"
	 viewBox="-0.203 214.102 511 114" enable-background="new -0.203 214.102 511 114" xml:space="preserve">
<g>
	<path fill="#686868" d="M41.315,217.123l-22.229,23.944l24.086,25.235v0.571H31.524l-20.943-22.157v22.157H1.147v-50.036h9.434
		v21.157l19.012-21.157h11.725v0.286H41.315z"/>
	<path fill="#686868" d="M85.296,266.871H47.842c0-16.656,0-33.383,0-50.033h37.454v9.148h-28.09v11.507h27.09v8.793h-27.09v11.291
		h28.09V266.871z"/>
	<path fill="#686868" d="M120.558,267.087h-9.791L89.97,216.838h10.578l15.079,38.954l15.156-38.954h10.578L120.558,267.087z"/>
	<path fill="#686868" d="M147.248,266.871v-50.033h9.365v50.033H147.248L147.248,266.871z"/>
	<path fill="#686868" d="M198.361,216.768h9.436v50.103h-5.864v0.069l-26.303-33.807v33.738h-9.434v-50.033h7.646l24.515,31.019
		v-31.089L198.361,216.768L198.361,216.768z"/>
	<path fill="#686868" d="M275.017,260.58c-5.144,5.075-11.797,7.438-19.012,7.438c-18.582,0-26.447-12.798-26.519-25.806
		c-0.07-13.083,8.436-26.375,26.519-26.375c6.79,0,13.22,2.572,18.363,7.646l-6.286,6.075c-3.29-3.217-7.723-4.719-12.08-4.719
		c-12.08,0-17.296,9.009-17.227,17.373c0.072,8.294,4.864,16.941,17.227,16.941c4.357,0,9.292-1.788,12.574-5.075L275.017,260.58z"
		/>
	<path fill="#686868" d="M314.423,266.941v-20.23h-24.59v20.23h-9.434v-50.033h9.434v21.084h24.59v-21.084h9.365v50.033
		L314.423,266.941L314.423,266.941z"/>
	<path fill="#686868" d="M333.62,266.871v-50.033h9.365v50.033H333.62L333.62,266.871z"/>
	<path fill="#686868" d="M383.291,228.913c-1.71-2.858-6.43-5.576-11.861-5.576c-7.009,0-10.365,2.934-10.365,6.653
		c0,4.359,5.144,5.576,11.152,6.286c10.434,1.286,20.154,4.004,20.154,15.94c0,11.152-9.865,15.94-21.015,15.94
		c-10.221,0-18.083-3.143-21.794-12.291l7.857-4.074c2.217,5.499,8.009,7.931,14.084,7.931c5.931,0,11.507-2.073,11.507-7.507
		c0-4.714-4.93-6.646-11.576-7.363c-10.226-1.217-19.659-3.927-19.659-15.148c0-10.295,10.151-14.515,19.369-14.585
		c7.792,0,15.871,2.217,19.659,9.935L383.291,228.913z"/>
	<path fill="#686868" d="M435.217,257.437h-26.161l-4.29,9.434h-10.221l22.442-50.033h10.29l22.447,50.033h-10.295L435.217,257.437z
		 M422.133,227.342l-9.29,21.3h18.582L422.133,227.342z"/>
	<path fill="#686868" d="M493.42,217.123l-22.231,23.944l24.088,25.235v0.571h-11.65l-20.94-22.157v22.157h-9.434v-50.036h9.434
		v21.157l19.014-21.157h11.72L493.42,217.123L493.42,217.123z"/>
	<path fill="#686868" d="M500.165,266.871v-50.033h9.365v50.033H500.165L500.165,266.871z"/>
	<path fill="#FFAD59" d="M21.462,321.113l-0.164-9.684v-14.019h2.922v29.215h-1.758l-18.902-23.5l0.082,8.641v14.858H0.72v-29.217
		h1.832L21.462,321.113z"/>
	<path fill="#FFAD59" d="M55.542,326.624H34.59v-29.217h20.58v2.753H37.511v10.476H54.37v2.711H37.511v10.524h18.031V326.624
		L55.542,326.624z"/>
	<path fill="#FFAD59" d="M93.592,326.703h-2.962l-4.382-12.559l-3.545-11.065l-3.51,11.018l-4.382,12.606h-3.004l-10.355-29.296
		h3.299l8.515,25.292l8.515-25.292h1.832l8.515,25.292l8.562-25.292h3.252L93.592,326.703z"/>
	<path fill="#FFAD59" d="M149.072,301.701l-10.896,16.028h-0.832l-10.936-16.231v25.123h-2.922v-29.215h3.59l10.685,16.109
		l10.558-16.109h3.672v29.215h-2.922v-24.92H149.072z"/>
	<path fill="#FFAD59" d="M183.324,326.624h-20.958v-29.217h20.58v2.753h-17.658v10.476h16.867v2.711h-16.867v10.524h18.035V326.624
		L183.324,326.624z"/>
	<path fill="#FFAD59" d="M202.296,297.407c9.893,0,14.655,7.135,14.655,14.317c0,7.385-4.429,14.898-14.655,14.898h-10.308v-29.215
		L202.296,297.407L202.296,297.407z M194.91,323.91h7.385c8.183,0,11.814-6.343,11.685-12.234
		c-0.122-5.675-3.836-11.517-11.685-11.517h-7.385V323.91z"/>
	<path fill="#FFAD59" d="M225.483,326.624v-29.217h2.922v29.215h-2.922V326.624z"/>
	<path fill="#FFAD59" d="M258.662,319.861h-16.949l-3.004,6.763h-3.091l13.106-29.215h2.922l13.106,29.215h-3.083L258.662,319.861z
		 M242.883,317.19h14.608l-7.303-16.611L242.883,317.19z"/>
	<path fill="#FFAD59" d="M294.163,297.407c9.893,0,14.65,7.135,14.65,14.317c0,7.385-4.424,14.898-14.65,14.898H283.85v-29.215
		L294.163,297.407L294.163,297.407z M286.772,323.91h7.391c8.183,0,11.814-6.343,11.685-12.234
		c-0.129-5.675-3.84-11.517-11.685-11.517h-7.391V323.91z"/>
	<path fill="#FFAD59" d="M338.302,326.624H317.35v-29.217h20.578v2.753h-17.659v10.476h16.859v2.711h-16.859v10.524H338.3v2.753
		L338.302,326.624L338.302,326.624z"/>
	<path fill="#FFAD59" d="M364.794,303.414c-1.628-2.711-5.343-3.714-8.391-3.714c-3.59,0-8.225,1.043-8.225,5.343
		c0,3.463,3.801,4.342,8.304,5.134c5.802,1,11.606,2.299,11.606,8.515c0,6.599-6.385,8.394-11.685,8.394
		c-4.883,0-9.975-1.792-12.187-6.472l2.542-1.373c2.009,3.794,6.092,5.047,9.644,5.047c3.59,0,8.723-0.961,8.723-5.633
		c0-3.962-4.382-4.965-8.935-5.762c-5.511-1-10.936-2.125-10.936-7.845c-0.122-6.174,6.221-8.095,11.104-8.095
		c3.962,0,8.346,1.082,10.896,5.092L364.794,303.414z"/>
	<path fill="#FFAD59" d="M376.375,326.624v-29.217h2.922v29.215h-2.922V326.624z"/>
	<path fill="#FFAD59" d="M411.975,303.164c-2.381-2.373-5.802-3.503-8.974-3.503c-8.013,0-12.227,5.926-12.227,12.477
		c0,6.39,4.051,12.065,12.227,12.065c2.962,0,5.931-1,8.394-3.173v-7.385h-9.562v-2.719h12.356v11.313
		c-3.004,3.13-6.634,4.801-11.186,4.801c-10.186,0-15.148-6.971-15.148-14.858c0-8.893,5.926-15.365,15.148-15.236
		c3.883-0.04,7.723,1.373,10.727,4.342L411.975,303.164z"/>
	<path fill="#FFAD59" d="M443.886,321.113l-0.164-9.684v-14.019h2.922v29.215h-1.758l-18.902-23.5l0.082,8.641v14.858h-2.922
		v-29.217h1.832L443.886,321.113z"/>
	<path fill="#FFAD59" d="M477.966,326.624h-20.953v-29.217h20.578v2.753h-17.659v10.476h16.867v2.711h-16.867v10.524h18.031v2.753
		L477.966,326.624L477.966,326.624z"/>
	<path fill="#FFAD59" d="M510.594,326.624h-3.796l-9.684-10.767h-7.555v10.767h-2.922v-29.217h13.105
		c6.467,0,9.684,4.342,9.684,9.265c0,4.551-2.589,8.637-8.811,8.974L510.594,326.624z M489.56,300.16v12.937h10.017
		c4.675,0,6.927-2.753,6.927-6.425s-2.252-6.512-6.757-6.512H489.56z"/>
</g>
</svg>
