<?xml version="1.0" encoding="utf-8"?>
<!-- Generator: Adobe Illustrator 18.1.1, SVG Export Plug-In . SVG Version: 6.00 Build 0)  -->
<svg version="1.1" id="Layer_1" xmlns="http://www.w3.org/2000/svg" xmlns:xlink="http://www.w3.org/1999/xlink" x="0px" y="0px"
	 viewBox="0 154 792 304" enable-background="new 0 154 792 304" xml:space="preserve">
<g id="Layer_3">
</g>
<g id="Icons">
</g>
<g id="Gravity">
	<g>
		<g>
			
				<linearGradient id="SVGID_1_" gradientUnits="userSpaceOnUse" x1="-9.5432" y1="539.2265" x2="576.4405" y2="539.2265" gradientTransform="matrix(1.3574 0 0 -1.3574 -3.051758e-05 983.0077)">
				<stop  offset="0" style="stop-color:#DE5998"/>
				<stop  offset="1" style="stop-color:#F88B39"/>
			</linearGradient>
			<path fill="url(#SVGID_1_)" d="M161.1,255.4v50.5c-16.8,13.4-40.1,22-65.8,22c-44.2,0-80.1-34.3-80.1-76.8
				c0-42.5,35.8-76.8,80.1-76.8c25,0,45.7,8.2,60.2,21.6l-8.2,9.1c-12.5-11.7-30.4-18.8-52-18.8c-37.1,0-67.3,29.1-67.3,65
				c0,36.3,30.2,65.4,67.3,65.4c20.9,0,39.3-6.7,53.3-17v-33h-57v-11H161.1L161.1,255.4z"/>
			
				<linearGradient id="SVGID_2_" gradientUnits="userSpaceOnUse" x1="-9.5432" y1="526.9055" x2="576.4405" y2="526.9055" gradientTransform="matrix(1.3574 0 0 -1.3574 -3.051758e-05 983.0077)">
				<stop  offset="0" style="stop-color:#DE5998"/>
				<stop  offset="1" style="stop-color:#F88B39"/>
			</linearGradient>
			<path fill="url(#SVGID_2_)" d="M200.5,236.2c6.9-16.6,20.3-27.6,39.1-27.6c5.4,0,11.4,1.1,17.5,4.1l-1.7,12.5
				c-6.5-2.8-12.5-3.9-17.9-3.9c-22.7,0-36.9,20.5-36.9,45.8v60h-12.3V210.7h12.3L200.5,236.2L200.5,236.2z"/>
			
				<linearGradient id="SVGID_3_" gradientUnits="userSpaceOnUse" x1="-9.5432" y1="526.667" x2="576.4405" y2="526.667" gradientTransform="matrix(1.3574 0 0 -1.3574 -3.051758e-05 983.0077)">
				<stop  offset="0" style="stop-color:#DE5998"/>
				<stop  offset="1" style="stop-color:#F88B39"/>
			</linearGradient>
			<path fill="url(#SVGID_3_)" d="M380.6,210.7V327h-12.1v-12.9c-11.2,8.6-26.1,13.8-43.6,13.8c-34.3,0-60.2-27.2-60.2-59.8
				c0-32.4,25.9-59.8,60.2-59.8c16.8,0,32.8,5.6,43.6,14.5v-12.1L380.6,210.7L380.6,210.7z M368.5,235.3
				c-10.1-9.7-25-15.5-42.1-15.5c-28.1,0-49.6,21.8-49.6,48.3c0,26.8,21.8,48.6,49.6,48.6c17.5,0,32.2-5.6,42.1-15.1V235.3z"/>
			
				<linearGradient id="SVGID_4_" gradientUnits="userSpaceOnUse" x1="-9.5432" y1="526.1105" x2="576.4405" y2="526.1105" gradientTransform="matrix(1.3574 0 0 -1.3574 -3.051758e-05 983.0077)">
				<stop  offset="0" style="stop-color:#DE5998"/>
				<stop  offset="1" style="stop-color:#F88B39"/>
			</linearGradient>
			<path fill="url(#SVGID_4_)" d="M518.3,210.7l-57,116.3h-6.5l-57.2-116.3H411l47,96.2l46.8-96.2H518.3z"/>
			
				<linearGradient id="SVGID_5_" gradientUnits="userSpaceOnUse" x1="-9.5432" y1="540.6565" x2="576.4405" y2="540.6565" gradientTransform="matrix(1.3574 0 0 -1.3574 -3.051758e-05 983.0077)">
				<stop  offset="0" style="stop-color:#DE5998"/>
				<stop  offset="1" style="stop-color:#F88B39"/>
			</linearGradient>
			<path fill="url(#SVGID_5_)" d="M534.8,179.9c0-4.7,3.7-8.6,8.4-8.6c4.7,0,8.4,3.9,8.4,8.6c0,4.7-3.7,8.4-8.4,8.4
				C538.5,188.3,534.8,184.6,534.8,179.9z M537.2,210.7h12.3V327h-12.3V210.7z"/>
			
				<linearGradient id="SVGID_6_" gradientUnits="userSpaceOnUse" x1="-9.5432" y1="542.8825" x2="576.4405" y2="542.8825" gradientTransform="matrix(1.3574 0 0 -1.3574 -3.051758e-05 983.0077)">
				<stop  offset="0" style="stop-color:#DE5998"/>
				<stop  offset="1" style="stop-color:#F88B39"/>
			</linearGradient>
			<path fill="url(#SVGID_6_)" d="M605.2,221.3v66c0,21.6,9.3,29.6,24.4,29.6c8.6,0,14.2-1.1,18.1-1.9v10.1
				c-3.5,1.1-10.8,2.8-22,2.8c-18.1,0-32.8-11.4-32.8-34.3v-72.3h-20.5v-10.6h20.5v-46.4h12.3v46.4h42.9v10.6H605.2z"/>
			
				<linearGradient id="SVGID_7_" gradientUnits="userSpaceOnUse" x1="-9.5432" y1="511.4045" x2="576.4405" y2="511.4045" gradientTransform="matrix(1.3574 0 0 -1.3574 -3.051758e-05 983.0077)">
				<stop  offset="0" style="stop-color:#DE5998"/>
				<stop  offset="1" style="stop-color:#F88B39"/>
			</linearGradient>
			<path fill="url(#SVGID_7_)" d="M781.7,210.7l-49.2,122.6c-7.8,19.6-27,30.2-46.4,32.8c-6.7,0.9-13.2,0.9-19.4,0.9l1.1-10.1h2.6
				c23.7,0,43.8-8.2,51.8-29.8l0,0l-58-116.3h13.2l50.8,102.1h0.2l40.6-102.1H781.7z"/>
		</g>
		<g>
			
				<linearGradient id="SVGID_8_" gradientUnits="userSpaceOnUse" x1="3.6043" y1="413.3965" x2="576.4657" y2="413.3965" gradientTransform="matrix(1.3574 0 0 -1.3574 -3.051758e-05 983.0077)">
				<stop  offset="0" style="stop-color:#DE5998"/>
				<stop  offset="1" style="stop-color:#F88B39"/>
			</linearGradient>
			<path fill="url(#SVGID_8_)" d="M87.2,433.3l2.3-3c2.1,2.3,5.5,4.5,10,4.5c5.7,0,7.5-3.1,7.5-5.5c0-8.2-18.9-3.7-18.9-15
				c0-5.3,4.7-8.8,10.9-8.8c4.9,0,8.6,1.6,11.3,4.4l-2.4,2.9c-2.4-2.6-5.7-3.8-9.2-3.8c-3.8,0-6.5,2.1-6.5,5.1
				c0,7.2,18.9,3.1,18.9,14.9c0,4.6-3.2,9.4-11.7,9.4C93.9,438.3,89.8,436.2,87.2,433.3z"/>
			
				<linearGradient id="SVGID_9_" gradientUnits="userSpaceOnUse" x1="3.6043" y1="412.307" x2="576.4657" y2="412.307" gradientTransform="matrix(1.3574 0 0 -1.3574 -3.051758e-05 983.0077)">
				<stop  offset="0" style="stop-color:#DE5998"/>
				<stop  offset="1" style="stop-color:#F88B39"/>
			</linearGradient>
			<path fill="url(#SVGID_9_)" d="M116.9,432.9v-15.1H113v-3.2h3.8v-6.3h3.6v6.3h4.7v3.2h-4.7v14.3c0,1.7,0.8,3,2.3,3
				c1,0,2-0.4,2.4-1l1.1,2.7c-0.9,0.9-2.2,1.5-4.3,1.5C118.6,438.3,116.9,436.4,116.9,432.9z"/>
			
				<linearGradient id="SVGID_10_" gradientUnits="userSpaceOnUse" x1="3.6043" y1="410.1945" x2="576.4657" y2="410.1945" gradientTransform="matrix(1.3574 0 0 -1.3574 -3.051758e-05 983.0077)">
				<stop  offset="0" style="stop-color:#DE5998"/>
				<stop  offset="1" style="stop-color:#F88B39"/>
			</linearGradient>
			<path fill="url(#SVGID_10_)" d="M144.6,437.7v-2.6c-1.9,2.1-4.5,3.2-7.6,3.2c-3.9,0-8.1-2.6-8.1-7.6c0-5.2,4.2-7.6,8.1-7.6
				c3.2,0,5.8,1,7.6,3.2v-4.2c0-3.1-2.5-4.9-5.8-4.9c-2.8,0-5,1-7.1,3.2l-1.7-2.5c2.5-2.6,5.4-3.8,9.2-3.8c4.9,0,8.9,2.2,8.9,7.8
				v15.9H144.6z M144.6,432.9v-4.3c-1.4-1.9-3.8-2.9-6.4-2.9c-3.3,0-5.7,2.1-5.7,5.1c0,2.9,2.3,5,5.7,5
				C140.8,435.7,143.2,434.8,144.6,432.9z"/>
			
				<linearGradient id="SVGID_11_" gradientUnits="userSpaceOnUse" x1="3.6043" y1="410.3705" x2="576.4657" y2="410.3705" gradientTransform="matrix(1.3574 0 0 -1.3574 -3.051758e-05 983.0077)">
				<stop  offset="0" style="stop-color:#DE5998"/>
				<stop  offset="1" style="stop-color:#F88B39"/>
			</linearGradient>
			<path fill="url(#SVGID_11_)" d="M155.4,437.7v-23.1h3.6v3.7c1.9-2.4,4.5-4.2,7.7-4.2v3.7c-0.4-0.1-0.9-0.1-1.4-0.1
				c-2.2,0-5.2,1.8-6.3,3.7v16.3H155.4z"/>
			
				<linearGradient id="SVGID_12_" gradientUnits="userSpaceOnUse" x1="3.6043" y1="412.307" x2="576.4657" y2="412.307" gradientTransform="matrix(1.3574 0 0 -1.3574 -3.051758e-05 983.0077)">
				<stop  offset="0" style="stop-color:#DE5998"/>
				<stop  offset="1" style="stop-color:#F88B39"/>
			</linearGradient>
			<path fill="url(#SVGID_12_)" d="M171.8,432.9v-15.1H168v-3.2h3.8v-6.3h3.6v6.3h4.7v3.2h-4.7v14.3c0,1.7,0.8,3,2.3,3
				c1,0,2-0.4,2.4-1l1.1,2.7c-0.9,0.9-2.2,1.5-4.3,1.5C173.5,438.3,171.8,436.4,171.8,432.9z"/>
			
				<linearGradient id="SVGID_13_" gradientUnits="userSpaceOnUse" x1="3.6043" y1="412.307" x2="576.4657" y2="412.307" gradientTransform="matrix(1.3574 0 0 -1.3574 -3.051758e-05 983.0077)">
				<stop  offset="0" style="stop-color:#DE5998"/>
				<stop  offset="1" style="stop-color:#F88B39"/>
			</linearGradient>
			<path fill="url(#SVGID_13_)" d="M198.2,432.9v-15.1h-3.8v-3.2h3.8v-6.3h3.6v6.3h4.7v3.2h-4.7v14.3c0,1.7,0.8,3,2.3,3
				c1,0,2-0.4,2.4-1l1.1,2.7c-0.9,0.9-2.2,1.5-4.3,1.5C199.9,438.3,198.2,436.4,198.2,432.9z"/>
			
				<linearGradient id="SVGID_14_" gradientUnits="userSpaceOnUse" x1="3.6043" y1="410.1945" x2="576.4657" y2="410.1945" gradientTransform="matrix(1.3574 0 0 -1.3574 -3.051758e-05 983.0077)">
				<stop  offset="0" style="stop-color:#DE5998"/>
				<stop  offset="1" style="stop-color:#F88B39"/>
			</linearGradient>
			<path fill="url(#SVGID_14_)" d="M210.2,426.2c0-6.7,4.4-12.1,11.4-12.1c7,0,11.4,5.4,11.4,12.1s-4.4,12.1-11.4,12.1
				C214.6,438.3,210.2,432.9,210.2,426.2z M229.2,426.2c0-4.7-2.7-8.9-7.6-8.9c-4.9,0-7.7,4.2-7.7,8.9c0,4.7,2.8,8.9,7.7,8.9
				C226.5,435.1,229.2,430.9,229.2,426.2z"/>
			
				<linearGradient id="SVGID_15_" gradientUnits="userSpaceOnUse" x1="3.6043" y1="406.9585" x2="576.4657" y2="406.9585" gradientTransform="matrix(1.3574 0 0 -1.3574 -3.051758e-05 983.0077)">
				<stop  offset="0" style="stop-color:#DE5998"/>
				<stop  offset="1" style="stop-color:#F88B39"/>
			</linearGradient>
			<path fill="url(#SVGID_15_)" d="M238.8,443.7l1.8-2.7c1.9,2.3,4.2,3.2,7.5,3.2c3.8,0,7.4-1.9,7.4-6.9v-3.3
				c-1.7,2.3-4.5,4.1-7.7,4.1c-6,0-10.3-4.5-10.3-11.9c0-7.4,4.2-12,10.3-12c3.1,0,5.9,1.5,7.7,4.1v-3.5h3.6v22.4
				c0,7.6-5.3,10-11,10C244.2,447.1,241.5,446.3,238.8,443.7z M255.5,431.1V421c-1.2-2-4-3.7-6.9-3.7c-4.6,0-7.4,3.7-7.4,8.8
				c0,5.1,2.8,8.8,7.4,8.8C251.5,434.9,254.2,433.1,255.5,431.1z"/>
			
				<linearGradient id="SVGID_16_" gradientUnits="userSpaceOnUse" x1="3.6043" y1="410.1945" x2="576.4657" y2="410.1945" gradientTransform="matrix(1.3574 0 0 -1.3574 -3.051758e-05 983.0077)">
				<stop  offset="0" style="stop-color:#DE5998"/>
				<stop  offset="1" style="stop-color:#F88B39"/>
			</linearGradient>
			<path fill="url(#SVGID_16_)" d="M264.9,426.2c0-6.7,4.8-12.1,11.4-12.1c7,0,11.1,5.4,11.1,12.4v0.9h-18.7c0.3,4.3,3.3,8,8.3,8
				c2.6,0,5.3-1.1,7.1-2.9l1.7,2.3c-2.3,2.3-5.4,3.5-9.2,3.5C269.8,438.3,264.9,433.4,264.9,426.2z M276.2,417.1
				c-4.9,0-7.4,4.2-7.5,7.7h15.1C283.8,421.3,281.5,417.1,276.2,417.1z"/>
			
				<linearGradient id="SVGID_17_" gradientUnits="userSpaceOnUse" x1="3.6043" y1="412.307" x2="576.4657" y2="412.307" gradientTransform="matrix(1.3574 0 0 -1.3574 -3.051758e-05 983.0077)">
				<stop  offset="0" style="stop-color:#DE5998"/>
				<stop  offset="1" style="stop-color:#F88B39"/>
			</linearGradient>
			<path fill="url(#SVGID_17_)" d="M293.8,432.9v-15.1H290v-3.2h3.8v-6.3h3.6v6.3h4.7v3.2h-4.7v14.3c0,1.7,0.8,3,2.3,3
				c1,0,2-0.4,2.4-1l1.1,2.7c-0.9,0.9-2.2,1.5-4.3,1.5C295.6,438.3,293.8,436.4,293.8,432.9z"/>
			
				<linearGradient id="SVGID_18_" gradientUnits="userSpaceOnUse" x1="3.6043" y1="413.432" x2="576.4657" y2="413.432" gradientTransform="matrix(1.3574 0 0 -1.3574 -3.051758e-05 983.0077)">
				<stop  offset="0" style="stop-color:#DE5998"/>
				<stop  offset="1" style="stop-color:#F88B39"/>
			</linearGradient>
			<path fill="url(#SVGID_18_)" d="M322.8,437.7v-15.2c0-4.1-2.1-5.3-5.2-5.3c-2.8,0-5.4,1.7-6.8,3.6v16.9h-3.6v-31.8h3.6V418
				c1.6-1.9,4.8-3.9,8.3-3.9c4.8,0,7.4,2.3,7.4,7.4v16.3H322.8z"/>
			
				<linearGradient id="SVGID_19_" gradientUnits="userSpaceOnUse" x1="3.6043" y1="410.1945" x2="576.4657" y2="410.1945" gradientTransform="matrix(1.3574 0 0 -1.3574 -3.051758e-05 983.0077)">
				<stop  offset="0" style="stop-color:#DE5998"/>
				<stop  offset="1" style="stop-color:#F88B39"/>
			</linearGradient>
			<path fill="url(#SVGID_19_)" d="M332.2,426.2c0-6.7,4.8-12.1,11.4-12.1c7,0,11.1,5.4,11.1,12.4v0.9h-18.7c0.3,4.3,3.3,8,8.3,8
				c2.6,0,5.3-1.1,7.1-2.9l1.7,2.3c-2.3,2.3-5.4,3.5-9.2,3.5C337.1,438.3,332.2,433.4,332.2,426.2z M343.5,417.1
				c-4.9,0-7.4,4.2-7.5,7.7h15.1C351,421.3,348.7,417.1,343.5,417.1z"/>
			
				<linearGradient id="SVGID_20_" gradientUnits="userSpaceOnUse" x1="3.6043" y1="410.3705" x2="576.4657" y2="410.3705" gradientTransform="matrix(1.3574 0 0 -1.3574 -3.051758e-05 983.0077)">
				<stop  offset="0" style="stop-color:#DE5998"/>
				<stop  offset="1" style="stop-color:#F88B39"/>
			</linearGradient>
			<path fill="url(#SVGID_20_)" d="M360.4,437.7v-23.1h3.6v3.7c1.9-2.4,4.5-4.2,7.7-4.2v3.7c-0.4-0.1-0.9-0.1-1.4-0.1
				c-2.2,0-5.2,1.8-6.3,3.7v16.3H360.4z"/>
			
				<linearGradient id="SVGID_21_" gradientUnits="userSpaceOnUse" x1="3.6043" y1="403.2825" x2="576.4657" y2="403.2825" gradientTransform="matrix(1.3574 0 0 -1.3574 -3.051758e-05 983.0077)">
				<stop  offset="0" style="stop-color:#DE5998"/>
				<stop  offset="1" style="stop-color:#F88B39"/>
			</linearGradient>
			<path fill="url(#SVGID_21_)" d="M371.5,435.6c0-1.4,1.2-2.6,2.6-2.6c1.4,0,2.6,1.2,2.6,2.6s-1.2,2.6-2.6,2.6
				C372.7,438.2,371.5,437,371.5,435.6z"/>
			
				<linearGradient id="SVGID_22_" gradientUnits="userSpaceOnUse" x1="3.6043" y1="413.432" x2="576.4657" y2="413.432" gradientTransform="matrix(1.3574 0 0 -1.3574 -3.051758e-05 983.0077)">
				<stop  offset="0" style="stop-color:#DE5998"/>
				<stop  offset="1" style="stop-color:#F88B39"/>
			</linearGradient>
			<path fill="url(#SVGID_22_)" d="M395.6,437.7v-31.8h20.9v3.5h-16.9v10.3h16.6v3.5h-16.6v14.5H395.6z"/>
			
				<linearGradient id="SVGID_23_" gradientUnits="userSpaceOnUse" x1="3.6043" y1="413.185" x2="576.4657" y2="413.185" gradientTransform="matrix(1.3574 0 0 -1.3574 -3.051758e-05 983.0077)">
				<stop  offset="0" style="stop-color:#DE5998"/>
				<stop  offset="1" style="stop-color:#F88B39"/>
			</linearGradient>
			<path fill="url(#SVGID_23_)" d="M421.1,409c0-1.3,1.1-2.4,2.4-2.4c1.3,0,2.4,1.1,2.4,2.4c0,1.3-1.1,2.4-2.4,2.4
				C422.2,411.4,421.1,410.3,421.1,409z M421.8,437.7v-23.1h3.6v23.1H421.8z"/>
			
				<linearGradient id="SVGID_24_" gradientUnits="userSpaceOnUse" x1="3.6043" y1="410.406" x2="576.4657" y2="410.406" gradientTransform="matrix(1.3574 0 0 -1.3574 -3.051758e-05 983.0077)">
				<stop  offset="0" style="stop-color:#DE5998"/>
				<stop  offset="1" style="stop-color:#F88B39"/>
			</linearGradient>
			<path fill="url(#SVGID_24_)" d="M448.1,437.7v-15.1c0-4.1-2.1-5.3-5.2-5.3c-2.8,0-5.5,1.7-6.8,3.6v16.9h-3.6v-23.1h3.6v3.3
				c1.6-1.9,4.8-3.9,8.2-3.9c4.8,0,7.4,2.4,7.4,7.4v16.2H448.1z"/>
			
				<linearGradient id="SVGID_25_" gradientUnits="userSpaceOnUse" x1="3.6043" y1="413.185" x2="576.4657" y2="413.185" gradientTransform="matrix(1.3574 0 0 -1.3574 -3.051758e-05 983.0077)">
				<stop  offset="0" style="stop-color:#DE5998"/>
				<stop  offset="1" style="stop-color:#F88B39"/>
			</linearGradient>
			<path fill="url(#SVGID_25_)" d="M458.2,409c0-1.3,1.1-2.4,2.4-2.4c1.3,0,2.4,1.1,2.4,2.4c0,1.3-1.1,2.4-2.4,2.4
				C459.3,411.4,458.2,410.3,458.2,409z M458.8,437.7v-23.1h3.6v23.1H458.8z"/>
			
				<linearGradient id="SVGID_26_" gradientUnits="userSpaceOnUse" x1="3.6043" y1="410.1945" x2="576.4657" y2="410.1945" gradientTransform="matrix(1.3574 0 0 -1.3574 -3.051758e-05 983.0077)">
				<stop  offset="0" style="stop-color:#DE5998"/>
				<stop  offset="1" style="stop-color:#F88B39"/>
			</linearGradient>
			<path fill="url(#SVGID_26_)" d="M467.6,434.7l1.9-2.6c1.5,1.8,4.4,3.3,7.6,3.3c3.5,0,5.4-1.7,5.4-4c0-5.6-14.3-2.1-14.3-10.7
				c0-3.6,3.1-6.6,8.6-6.6c3.9,0,6.7,1.5,8.5,3.3l-1.7,2.5c-1.4-1.7-3.9-2.9-6.9-2.9c-3.2,0-5.1,1.6-5.1,3.6
				c0,5.1,14.3,1.7,14.3,10.7c0,3.9-3.1,7-9.1,7C473.1,438.3,469.9,437.2,467.6,434.7z"/>
			
				<linearGradient id="SVGID_27_" gradientUnits="userSpaceOnUse" x1="3.6043" y1="413.432" x2="576.4657" y2="413.432" gradientTransform="matrix(1.3574 0 0 -1.3574 -3.051758e-05 983.0077)">
				<stop  offset="0" style="stop-color:#DE5998"/>
				<stop  offset="1" style="stop-color:#F88B39"/>
			</linearGradient>
			<path fill="url(#SVGID_27_)" d="M507.4,437.7v-15.2c0-4.1-2.1-5.3-5.2-5.3c-2.8,0-5.4,1.7-6.8,3.6v16.9h-3.6v-31.8h3.6V418
				c1.6-1.9,4.8-3.9,8.3-3.9c4.8,0,7.4,2.3,7.4,7.4v16.3H507.4z"/>
			
				<linearGradient id="SVGID_28_" gradientUnits="userSpaceOnUse" x1="3.6043" y1="412.307" x2="576.4657" y2="412.307" gradientTransform="matrix(1.3574 0 0 -1.3574 -3.051758e-05 983.0077)">
				<stop  offset="0" style="stop-color:#DE5998"/>
				<stop  offset="1" style="stop-color:#F88B39"/>
			</linearGradient>
			<path fill="url(#SVGID_28_)" d="M531.2,432.9v-15.1h-3.8v-3.2h3.8v-6.3h3.6v6.3h4.7v3.2h-4.7v14.3c0,1.7,0.8,3,2.3,3
				c1,0,2-0.4,2.4-1l1.1,2.7c-0.9,0.9-2.2,1.5-4.3,1.5C532.9,438.3,531.2,436.4,531.2,432.9z"/>
			
				<linearGradient id="SVGID_29_" gradientUnits="userSpaceOnUse" x1="3.6043" y1="410.1945" x2="576.4657" y2="410.1945" gradientTransform="matrix(1.3574 0 0 -1.3574 -3.051758e-05 983.0077)">
				<stop  offset="0" style="stop-color:#DE5998"/>
				<stop  offset="1" style="stop-color:#F88B39"/>
			</linearGradient>
			<path fill="url(#SVGID_29_)" d="M543.1,426.2c0-6.7,4.4-12.1,11.4-12.1s11.4,5.4,11.4,12.1s-4.4,12.1-11.4,12.1
				S543.1,432.9,543.1,426.2z M562.2,426.2c0-4.7-2.7-8.9-7.6-8.9c-4.9,0-7.7,4.2-7.7,8.9c0,4.7,2.8,8.9,7.7,8.9
				C559.5,435.1,562.2,430.9,562.2,426.2z"/>
			
				<linearGradient id="SVGID_30_" gradientUnits="userSpaceOnUse" x1="3.6043" y1="406.9585" x2="576.4657" y2="406.9585" gradientTransform="matrix(1.3574 0 0 -1.3574 -3.051758e-05 983.0077)">
				<stop  offset="0" style="stop-color:#DE5998"/>
				<stop  offset="1" style="stop-color:#F88B39"/>
			</linearGradient>
			<path fill="url(#SVGID_30_)" d="M571.7,443.7l1.8-2.7c1.9,2.3,4.2,3.2,7.5,3.2c3.8,0,7.4-1.9,7.4-6.9v-3.3
				c-1.7,2.3-4.5,4.1-7.7,4.1c-6,0-10.3-4.5-10.3-11.9c0-7.4,4.2-12,10.3-12c3.1,0,5.9,1.5,7.7,4.1v-3.5h3.6v22.4
				c0,7.6-5.3,10-11,10C577.1,447.1,574.5,446.3,571.7,443.7z M588.5,431.1V421c-1.2-2-4-3.7-6.9-3.7c-4.6,0-7.4,3.7-7.4,8.8
				c0,5.1,2.8,8.8,7.4,8.8C584.4,434.9,587.2,433.1,588.5,431.1z"/>
			
				<linearGradient id="SVGID_31_" gradientUnits="userSpaceOnUse" x1="3.6043" y1="410.1945" x2="576.4657" y2="410.1945" gradientTransform="matrix(1.3574 0 0 -1.3574 -3.051758e-05 983.0077)">
				<stop  offset="0" style="stop-color:#DE5998"/>
				<stop  offset="1" style="stop-color:#F88B39"/>
			</linearGradient>
			<path fill="url(#SVGID_31_)" d="M597.9,426.2c0-6.7,4.8-12.1,11.4-12.1c7,0,11.1,5.4,11.1,12.4v0.9h-18.7c0.3,4.3,3.3,8,8.3,8
				c2.6,0,5.3-1.1,7.1-2.9l1.7,2.3c-2.3,2.3-5.4,3.5-9.2,3.5C602.8,438.3,597.9,433.4,597.9,426.2z M609.2,417.1
				c-4.9,0-7.4,4.2-7.5,7.7h15.1C616.7,421.3,614.4,417.1,609.2,417.1z"/>
			
				<linearGradient id="SVGID_32_" gradientUnits="userSpaceOnUse" x1="3.6043" y1="412.307" x2="576.4657" y2="412.307" gradientTransform="matrix(1.3574 0 0 -1.3574 -3.051758e-05 983.0077)">
				<stop  offset="0" style="stop-color:#DE5998"/>
				<stop  offset="1" style="stop-color:#F88B39"/>
			</linearGradient>
			<path fill="url(#SVGID_32_)" d="M626.8,432.9v-15.1H623v-3.2h3.8v-6.3h3.6v6.3h4.7v3.2h-4.7v14.3c0,1.7,0.8,3,2.3,3
				c1,0,2-0.4,2.4-1l1.1,2.7c-0.9,0.9-2.2,1.5-4.3,1.5C628.5,438.3,626.8,436.4,626.8,432.9z"/>
			
				<linearGradient id="SVGID_33_" gradientUnits="userSpaceOnUse" x1="3.6043" y1="413.432" x2="576.4657" y2="413.432" gradientTransform="matrix(1.3574 0 0 -1.3574 -3.051758e-05 983.0077)">
				<stop  offset="0" style="stop-color:#DE5998"/>
				<stop  offset="1" style="stop-color:#F88B39"/>
			</linearGradient>
			<path fill="url(#SVGID_33_)" d="M655.7,437.7v-15.2c0-4.1-2.1-5.3-5.2-5.3c-2.8,0-5.4,1.7-6.8,3.6v16.9h-3.6v-31.8h3.6V418
				c1.6-1.9,4.8-3.9,8.3-3.9c4.8,0,7.4,2.3,7.4,7.4v16.3H655.7z"/>
			
				<linearGradient id="SVGID_34_" gradientUnits="userSpaceOnUse" x1="3.6043" y1="410.1945" x2="576.4657" y2="410.1945" gradientTransform="matrix(1.3574 0 0 -1.3574 -3.051758e-05 983.0077)">
				<stop  offset="0" style="stop-color:#DE5998"/>
				<stop  offset="1" style="stop-color:#F88B39"/>
			</linearGradient>
			<path fill="url(#SVGID_34_)" d="M665.1,426.2c0-6.7,4.8-12.1,11.4-12.1c7,0,11.1,5.4,11.1,12.4v0.9h-18.7c0.3,4.3,3.3,8,8.3,8
				c2.6,0,5.3-1.1,7.1-2.9l1.7,2.3c-2.3,2.3-5.4,3.5-9.2,3.5C670.1,438.3,665.1,433.4,665.1,426.2z M676.5,417.1
				c-4.9,0-7.4,4.2-7.5,7.7h15.1C684,421.3,681.7,417.1,676.5,417.1z"/>
			
				<linearGradient id="SVGID_35_" gradientUnits="userSpaceOnUse" x1="3.6043" y1="410.3705" x2="576.4657" y2="410.3705" gradientTransform="matrix(1.3574 0 0 -1.3574 -3.051758e-05 983.0077)">
				<stop  offset="0" style="stop-color:#DE5998"/>
				<stop  offset="1" style="stop-color:#F88B39"/>
			</linearGradient>
			<path fill="url(#SVGID_35_)" d="M693.4,437.7v-23.1h3.6v3.7c1.9-2.4,4.5-4.2,7.7-4.2v3.7c-0.4-0.1-0.9-0.1-1.4-0.1
				c-2.2,0-5.2,1.8-6.3,3.7v16.3H693.4z"/>
			
				<linearGradient id="SVGID_36_" gradientUnits="userSpaceOnUse" x1="3.6043" y1="403.2825" x2="576.4657" y2="403.2825" gradientTransform="matrix(1.3574 0 0 -1.3574 -3.051758e-05 983.0077)">
				<stop  offset="0" style="stop-color:#DE5998"/>
				<stop  offset="1" style="stop-color:#F88B39"/>
			</linearGradient>
			<path fill="url(#SVGID_36_)" d="M704.4,435.6c0-1.4,1.2-2.6,2.6-2.6c1.4,0,2.6,1.2,2.6,2.6s-1.2,2.6-2.6,2.6
				C705.6,438.2,704.4,437,704.4,435.6z"/>
		</g>
	</g>
</g>
</svg>
