<?xml version="1.0" encoding="utf-8"?>
<!-- Generator: Adobe Illustrator 18.1.1, SVG Export Plug-In . SVG Version: 6.00 Build 0)  -->
<svg version="1.1" xmlns="http://www.w3.org/2000/svg" xmlns:xlink="http://www.w3.org/1999/xlink" x="0px" y="0px"
	 viewBox="0 0 382 796" enable-background="new 0 0 382 796" xml:space="preserve">
<g id="Layer_2">
</g>
<g id="Center-Type">
	<g>
		<path fill="#FFFFFF" d="M43.859,731.981c0-2.219-1.21-3.429-3.428-3.429H24.7c-2.218,0-3.428,1.21-3.428,3.429v39.123
			c0,2.219,1.21,3.429,3.428,3.429h15.73c2.218,0,3.428-1.21,3.428-3.429v-8.874h14.52v11.698c0,8.469-5.849,14.318-14.319,14.318
			H21.07c-8.47,0-14.319-5.849-14.319-14.318v-44.773c0-8.469,5.849-14.318,14.319-14.318h22.991c8.47,0,14.319,5.849,14.319,14.318
			v11.698h-14.52V731.981z"/>
		<path fill="#FFFFFF" d="M118.785,715.241v13.714H85.811v14.924h26.721v13.714H85.811v16.537h32.973v13.714H71.291v-72.602H118.785
			z"/>
		<path fill="#FFFFFF" d="M187.559,715.241v72.602h-15.63l-26.721-49.51v49.51h-13.613v-72.602h15.63l26.721,49.51v-49.51H187.559z"
			/>
		<path fill="#FFFFFF" d="M231.528,728.754v59.09h-14.52v-59.09h-18.957v-13.513h52.435v13.513H231.528z"/>
		<path fill="#FFFFFF" d="M308.471,715.241v13.714h-32.973v14.924h26.721v13.714h-26.721v16.537h32.973v13.714h-47.494v-72.602
			H308.471z"/>
		<path fill="#FFFFFF" d="M359.195,787.844l-11.697-26.923h-11.697v26.923h-14.52v-72.602h37.007c8.47,0,14.319,5.848,14.319,14.319
			v17.041c0,6.857-3.832,12-9.882,13.714l12.1,27.529H359.195z M358.086,732.383c0-2.218-1.21-3.428-3.428-3.428h-18.857v18.453
			h18.857c2.218,0,3.428-1.21,3.428-3.428V732.383z"/>
	</g>
</g>
<g id="Guitar-Type">
	<g>
		<path fill="#FFFFFF" d="M61.91,637.522c0-2.218-1.21-3.428-3.428-3.428H41.844c-2.218,0-3.428,1.21-3.428,3.428v39.126
			c0,2.218,1.21,3.428,3.428,3.428h16.638c2.218,0,3.428-1.21,3.428-3.428v-10.79H48.6v-13.108h27.831v26.721
			c0,8.471-5.848,14.319-14.318,14.319H38.214c-8.47,0-14.319-5.848-14.319-14.319V634.7c0-8.471,5.849-14.319,14.319-14.319h23.899
			c8.47,0,14.318,5.848,14.318,14.319v9.478H61.91V637.522z"/>
		<path fill="#FFFFFF" d="M141.072,679.47c0,8.471-5.849,14.319-14.319,14.319h-23.192c-8.47,0-14.319-5.848-14.319-14.319v-58.686
			h14.52v55.864c0,2.218,1.21,3.428,3.428,3.428h15.932c2.218,0,3.428-1.21,3.428-3.428v-55.864h14.52V679.47z"/>
		<path fill="#FFFFFF" d="M155.899,620.784h14.52v72.602h-14.52V620.784z"/>
		<path fill="#FFFFFF" d="M214.386,634.295v59.091h-14.52v-59.091h-18.957v-13.511h52.435v13.511H214.386z"/>
		<path fill="#FFFFFF" d="M245.851,693.386h-15.025l23.394-72.602h16.941l23.394,72.602h-15.629l-4.74-16.336h-23.495
			L245.851,693.386z M254.725,663.336h15.528l-7.664-26.621L254.725,663.336z"/>
		<path fill="#FFFFFF" d="M342.052,693.386l-11.697-26.923h-11.697v26.923h-14.52v-72.602h37.007c8.47,0,14.319,5.849,14.319,14.318
			v17.042c0,6.857-3.832,11.999-9.882,13.714l12.1,27.529H342.052z M340.943,637.927c0-2.219-1.21-3.429-3.428-3.429h-18.857v18.453
			h18.857c2.218,0,3.428-1.21,3.428-3.428V637.927z"/>
	</g>
</g>
<g id="GC-Logo-Center">
	<path fill="#FFFFFF" d="M199.134,416.373c12.224-0.637,23.961-3.142,34.934-7.229V187.427c-10.973-4.087-22.71-6.592-34.934-7.229
		V416.373z"/>
	<path fill="#FFFFFF" d="M151.757,409.144c10.973,4.087,22.71,6.592,34.934,7.229V180.198c-12.224,0.637-23.961,3.142-34.934,7.229
		V409.144z"/>
	<path fill="#FFFFFF" d="M74.662,298.285c0,45.921,26.313,85.811,64.652,105.389V192.896
		C100.974,212.474,74.662,252.364,74.662,298.285z"/>
	<path fill="#FFFFFF" d="M246.512,192.896v210.778c38.339-19.578,64.652-59.468,64.652-105.389S284.851,212.475,246.512,192.896z"/>
</g>
<g id="GC-Logo-Outer">
	<g>
		<g>
			<g>
				<path fill="#FFFFFF" d="M246.512,157.69v-98.76c0-3.436-2.786-6.222-6.222-6.222c-3.436,0-6.222,2.786-6.222,6.222v94.618
					c-11.169-3.17-22.87-5.07-34.934-5.561V13.551c0-3.436-2.786-6.222-6.222-6.222c-3.436,0-6.222,2.786-6.222,6.222v134.436
					c-12.064,0.491-23.765,2.392-34.934,5.561V58.931c0-3.436-2.786-6.222-6.222-6.222c-3.436,0-6.222,2.786-6.222,6.222v98.76
					c-56.615,21.597-96.836,76.394-96.836,140.595s40.222,118.998,96.836,140.595v101.605c0,3.436,2.786,6.222,6.222,6.222
					c3.436,0,6.222-2.786,6.222-6.222v-97.464c11.169,3.17,22.87,5.07,34.934,5.561v137.282c0,3.436,2.786,6.222,6.222,6.222
					c3.436,0,6.222-2.786,6.222-6.222V448.584c12.064-0.491,23.765-2.392,34.934-5.561v97.464c0,3.436,2.786,6.222,6.222,6.222
					c3.436,0,6.222-2.786,6.222-6.222V438.88c56.615-21.597,96.837-76.394,96.837-140.595S303.127,179.287,246.512,157.69z
					 M192.913,435.126c-75.454,0-136.841-61.387-136.841-136.841s61.387-136.841,136.841-136.841s136.841,61.387,136.841,136.841
					S268.367,435.126,192.913,435.126z"/>
			</g>
		</g>
	</g>
</g>
</svg>
