<?xml version="1.0" encoding="utf-8"?>
<!-- Generator: Adobe Illustrator 18.1.1, SVG Export Plug-In . SVG Version: 6.00 Build 0)  -->
<svg version="1.1" id="Layer_1" xmlns="http://www.w3.org/2000/svg" xmlns:xlink="http://www.w3.org/1999/xlink" x="0px" y="0px"
	 viewBox="0 0 705 354" enable-background="new 0 0 705 354" xml:space="preserve">
<g>
	<path fill="#A4AE9B" d="M446.541,165.661c0,0-27.067,2.415-26.069-27.129C434.204,139.148,445.103,142.696,446.541,165.661z"/>
	<path fill="#FEC34E" d="M462.268,147.254c0,0-35.754-7.225-23.193-44.862C456.513,108.418,469.182,117.147,462.268,147.254z"/>
	<path fill="#B2AA5D" d="M427.791,121.812c0,0-31.671-6.4-20.547-39.744C422.692,87.407,433.912,95.144,427.791,121.812z"/>
	<path fill="#9E0039" d="M437.335,83.313c0,0-32.305,0.902-28.979-34.086C424.607,50.943,437.284,55.954,437.335,83.313z"/>
	<path fill="#624661" d="M473.314,101.934c0,0-32.188-2.879-24.791-37.24C464.458,68.298,476.463,74.757,473.314,101.934z"/>
	<path fill="#B2AA5D" d="M475.124,67.672c0,0-30.286-22.17-2.314-51.918C486.499,28.91,494.565,42.538,475.124,67.672z"/>
	<path fill="#A4AE9B" d="M448.831,55.265c0,0-26.336-5.441-16.951-33.146C444.715,26.616,454.02,33.093,448.831,55.265z"/>
	<path fill="#9E0039" d="M500.164,42.805c0,0-11.86-32.908,25.236-41.319C529.133,18.778,528.271,33.503,500.164,42.805z"/>
	<path fill="#FEC34E" d="M481.396,79.781c0,0,5.915-34.472,42.331-23.49C518.441,73.177,510.429,85.56,481.396,79.781z"/>
	<path fill="#A4AE9B" d="M510.836,145.406c0,0,31.759-14.653,43.341,21.575C537.274,172.187,522.524,172.605,510.836,145.406z"/>
	<path fill="#A4AE9B" d="M474.428,124.822c0,0-2.755-34.863,35.243-33.194C508.707,109.296,503.994,123.269,474.428,124.822z"/>
	<path fill="#B2AA5D" d="M498.076,133.865c0,0,12.013-32.846,45.86-15.502C535.707,134.02,525.598,144.766,498.076,133.865z"/>
	<path fill="#624661" d="M543.936,138.042c0,0,12.018-32.852,45.871-15.507C581.576,138.197,571.467,148.938,543.936,138.042z"/>
	<path fill="#B2AA5D" d="M584.286,146.097c0,0,18.006-29.981,47.965-6.55C621.207,153.37,609.256,162.003,584.286,146.097z"/>
	<path fill="#9E0039" d="M596.81,171.226c0,0,25.423-17.891,41.348,11.938C624.204,190.418,611.38,193.133,596.81,171.226z"/>
	<path fill="#FEC34E" d="M559.644,154.297c0,0,21.259-10.877,30.163,13.515C578.418,171.839,568.374,172.525,559.644,154.297z"/>
	<path fill="#9E0039" d="M518.791,102.633c0,0,12.015-32.852,45.866-15.51C556.428,102.789,546.317,113.529,518.791,102.633z"/>
	<path fill="#9E0039" d="M476.886,135.038c0,0,27.595-5.899,30.286,24.676C492.94,160.809,481.262,158.522,476.886,135.038z"/>
	<path fill="#624661" d="M465.706,156.519c0,0,19.152-4.1,21.021,17.125C476.849,174.41,468.743,172.814,465.706,156.519z"/>
	<g>
		<path fill="#231F20" d="M24.297,126.924h-0.193l-8.51,48.15H6.216L21.105,99.08l25.043,57.426L71.185,99.08l14.886,75.994h-9.375
			l-8.51-48.15h-0.193l-21.846,49.69L24.297,126.924z"/>
		<path fill="#231F20" d="M102.036,102.175v43.019c0,11.889,3.575,22.917,17.593,22.917s17.596-11.027,17.596-22.917v-43.019h9.089
			v46.12c0,16.043-9.956,28.318-26.685,28.318c-16.726,0-26.684-12.275-26.684-28.318v-46.12H102.036z"/>
		<path fill="#231F20" d="M191.28,116.004c-2.71-4.547-6.191-6.869-11.702-6.869c-5.8,0-12.181,3.966-12.181,10.347
			c0,5.701,5.61,8.7,10.152,10.438l5.222,2.03c10.345,4.062,18.078,9.763,18.078,21.95c0,13.242-10.248,22.713-23.3,22.713
			c-11.793,0-20.978-8.7-22.526-20.397l9.185-1.931c-0.097,8.023,6.282,13.826,14.117,13.826c7.827,0,13.437-6.579,13.437-14.211
			c0-7.833-6.288-11.217-12.572-13.828l-5.026-2.126c-8.312-3.575-15.853-8.315-15.853-18.464c0-11.798,10.441-18.854,21.463-18.854
			c8.119,0,14.792,3.966,18.753,11.022L191.28,116.004z"/>
		<path fill="#231F20" d="M210.812,102.175h39.155v8.312h-30.069v20.402h29.196v8.315h-29.196v27.547h30.069v8.323h-39.155V102.175z
			"/>
		<path fill="#231F20" d="M269.017,102.175v43.019c0,11.889,3.578,22.917,17.596,22.917c14.021,0,17.596-11.027,17.596-22.917
			v-43.019h9.086v46.12c0,16.043-9.959,28.318-26.682,28.318c-16.723,0-26.679-12.275-26.679-28.318v-46.12H269.017z"/>
		<path fill="#231F20" d="M338.25,126.924h-0.193l-8.51,48.15h-9.378l14.889-75.994l25.038,57.426l25.04-57.426l14.891,75.994h-9.38
			l-8.505-48.15h-0.198l-21.848,49.69L338.25,126.924z"/>
	</g>
	<g>
		<path fill="#231F20" d="M188.442,246.326l-8.312,18.273h-9.763l34.801-75.989l34.801,75.989h-9.764l-8.315-18.273H188.442z
			 M205.168,208.525l-12.955,29.488h25.911L205.168,208.525z"/>
		<path fill="#231F20" d="M255.061,200.02v20.491h25.332v8.315h-25.332v35.773h-9.086v-72.898h35.286v8.32H255.061z"/>
		<path fill="#231F20" d="M337.243,264.599h-11.022l-21.463-30.843h-3.768v30.843h-9.089v-72.898h11.019
			c6.478,0,13.44,0.096,19.24,3.382c6.095,3.583,9.573,10.446,9.573,17.406c0,10.444-6.962,19.141-17.499,20.4L337.243,264.599z
			 M300.991,226.212h2.9c9.279,0,19.337-1.738,19.337-13.341c0-11.408-10.829-13.049-19.821-13.049h-2.415V226.212z"/>
		<path fill="#231F20" d="M353.203,264.599h-9.086v-72.898h9.086V264.599z"/>
		<path fill="#231F20" d="M419.913,205.625c-5.222-4.643-12.374-7.152-19.237-7.152c-16.337,0-28.811,13.63-28.811,29.775
			c0,15.946,12.374,29.584,28.615,29.584c7.155,0,14.018-2.71,19.433-7.543v10.733c-5.607,3.288-12.763,5.123-19.141,5.123
			c-20.785,0-37.996-16.53-37.996-37.607c0-21.556,17.307-38.384,38.767-38.384c6.381,0,12.859,1.548,18.37,4.93V205.625z"/>
		<path fill="#231F20" d="M443.841,246.326l-8.315,18.273h-9.766l34.803-75.989l34.801,75.989h-9.763l-8.315-18.273H443.841z
			 M460.564,208.525l-12.955,29.488h25.911L460.564,208.525z"/>
		<path fill="#231F20" d="M500.598,188.219l54.716,57.329v-53.848h9.091v75.895l-54.721-57.329v54.333h-9.086V188.219z"/>
	</g>
	<g>
		<path fill="#231F20" d="M97.744,213.758c0,6.212-4.847,10.968-11.014,10.968s-11.014-4.756-11.014-10.968
			s4.847-10.976,11.014-10.976S97.744,207.545,97.744,213.758z M79.679,213.758c0,3.878,3.128,7.182,7.051,7.182
			c3.923,0,7.051-3.304,7.051-7.182c0-3.926-3.128-7.182-7.051-7.182C82.807,206.576,79.679,209.832,79.679,213.758z"/>
		<path fill="#231F20" d="M111.572,189.786c-0.793-0.351-1.805-0.838-2.64-0.838c-2.825,0-2.825,3.572-2.825,5.599v8.856h5.466
			v3.698h-5.466v16.921h-3.96v-16.921h-1.81v-3.698h1.81v-10.047c0-4.496,1.54-8.109,6.652-8.109c0.969,0,1.893,0.18,2.774,0.53
			V189.786z"/>
		<path fill="#231F20" d="M130.729,224.022h-3.969v-16.921h-2.153v-3.698h2.153v-7.886h3.969v7.886h3.877v3.698h-3.877V224.022z"/>
		<path fill="#231F20" d="M140.728,185.777v20.4h0.086c1.232-2.201,3.701-3.396,6.212-3.396c5.816,0,7.313,3.926,7.313,8.947v12.294
			h-3.966V212.21c0-3.521-0.482-5.899-4.536-5.899c-5.109,0-5.109,4.491-5.109,8.234v9.477h-3.969v-38.245H140.728z"/>
		<path fill="#231F20" d="M162.178,214.371c0.043,3.529,2.421,6.829,6.213,6.829c3.042,0,4.67-1.542,6.164-4.009l3.35,1.896
			c-1.939,3.569-5.551,5.639-9.56,5.639c-6.301,0-10.136-4.756-10.136-10.837c0-6.344,3.395-11.108,10.047-11.108
			c6.563,0,9.648,4.847,9.648,10.976v0.613H162.178z M173.941,211.375c-0.485-3.085-2.509-5.155-5.685-5.155
			c-3.085,0-5.374,2.204-5.862,5.155H173.941z"/>
	</g>
	<g>
		<path fill="#231F20" d="M246.963,278.028h15.081c22.336,0,40.896,11.793,40.896,36.06c0,24.853-18.174,36.839-41.185,36.839
			h-14.792V278.028z M256.057,342.612h3.189c18.56,0,34.611-6.96,34.611-28.133c0-21.267-16.051-28.13-34.611-28.13h-3.189V342.612z
			"/>
		<path fill="#231F20" d="M320.839,350.926h-9.091v-72.898h9.091V350.926z"/>
		<path fill="#231F20" d="M344.816,332.656l-8.315,18.271h-9.763l34.801-75.991l34.804,75.991h-9.766l-8.312-18.271H344.816z
			 M361.539,294.856l-12.953,29.485h25.908L361.539,294.856z"/>
		<path fill="#231F20" d="M434.828,291.856c-2.705-4.544-6.186-6.868-11.697-6.868c-5.8,0-12.179,3.968-12.179,10.347
			c0,5.709,5.605,8.7,10.149,10.446l5.222,2.03c10.345,4.057,18.078,9.763,18.078,21.942c0,13.244-10.248,22.718-23.3,22.718
			c-11.796,0-20.978-8.698-22.526-20.394l9.188-1.939c-0.099,8.025,6.279,13.828,14.109,13.828c7.832,0,13.44-6.574,13.44-14.214
			c0-7.833-6.282-11.215-12.567-13.823l-5.026-2.129c-8.315-3.578-15.858-8.309-15.858-18.466c0-11.793,10.443-18.849,21.463-18.849
			c8.122,0,14.792,3.963,18.755,11.019L434.828,291.856z"/>
		<path fill="#231F20" d="M463.454,350.926h-9.091v-72.898h10.444c22.427,0,29.389,7.736,29.389,21.077
			c0,15.373-11.697,21.275-25.523,21.275h-5.219V350.926z M463.454,312.253h2.898c9.281,0,19.336-1.735,19.336-13.341
			c0-11.408-10.826-12.757-19.821-12.757h-2.413V312.253z"/>
		<path fill="#231F20" d="M573.478,314.479c0,21.656-17.111,37.993-38.186,37.993c-21.077,0-38.191-16.337-38.191-37.993
			c0-20.882,17.307-37.993,38.191-37.993C556.171,276.486,573.478,293.597,573.478,314.479z M564.389,314.479
			c0-16.048-11.989-29.491-29.097-29.491c-17.114,0-29.1,13.443-29.1,29.491c0,16.629,13.338,29.488,29.1,29.488
			C551.049,343.967,564.389,331.108,564.389,314.479z"/>
		<path fill="#231F20" d="M627.629,350.926h-11.022l-21.463-30.84h-3.773v30.84h-9.086v-72.898h11.022
			c6.48,0,13.437,0.096,19.237,3.39c6.089,3.57,9.571,10.438,9.571,17.398c0,10.438-6.96,19.144-17.497,20.403L627.629,350.926z
			 M591.371,312.548h2.9c9.284,0,19.336-1.74,19.336-13.346c0-11.408-10.826-13.047-19.818-13.047h-2.418V312.548z"/>
		<path fill="#231F20" d="M650.622,332.656l-8.315,18.271h-9.766l34.806-75.991l34.801,75.991h-9.763l-8.315-18.271H650.622z
			 M667.348,294.856l-12.955,29.485h25.911L667.348,294.856z"/>
	</g>
</g>
</svg>
